<svg width="22" height="14" viewBox="0 0 22 14" fill="none" xmlns="http://www.w3.org/2000/svg">
<path d="M5.5 3.23077H0V1.07692H5.5V3.23077ZM5.5 6.46154H0V8.61538H5.5V6.46154ZM20.449 14L16.236 9.87538C15.356 10.4354 14.322 10.7692 13.2 10.7692C10.164 10.7692 7.7 8.35692 7.7 5.38462C7.7 2.41231 10.164 0 13.2 0C16.236 0 18.7 2.41231 18.7 5.38462C18.7 6.48308 18.359 7.49538 17.787 8.34615L22 12.4815L20.449 14ZM16.5 5.38462C16.5 3.60769 15.015 2.15385 13.2 2.15385C11.385 2.15385 9.9 3.60769 9.9 5.38462C9.9 7.16154 11.385 8.61538 13.2 8.61538C15.015 8.61538 16.5 7.16154 16.5 5.38462ZM0 14H11V11.8462H0V14Z" fill="white"/>
</svg>
